
<svg width="20" height="20" viewBox="0 0 20 20" fill="none" xmlns="http://www.w3.org/2000/svg">
<path d="M10 17.5C9.82168 17.5 9.60751 17.4283 9.50001 17.2858C8.89251 16.6783 8.10751 16 7.28584 15.2858C4.67834 13.0717 1.42834 10.2858 1.42834 6.78583C1.42834 4.25 3.17834 2.5 5.71418 2.5C7.71418 2.5 9.00001 3.53583 10 4.8575C11 3.57167 12.2858 2.5 14.2858 2.5C16.8217 2.5 18.5717 4.25 18.5717 6.78583C18.5717 10.2858 15.3217 13.0717 12.7142 15.2858C11.8925 16 11.1075 16.6425 10.5 17.2858C10.3933 17.4283 10.1783 17.5 10 17.5ZM5.71418 3.92833C3.96418 3.92833 2.85751 5.03583 2.85751 6.78583C2.85751 9.6425 5.71418 12.0717 8.21418 14.2142C8.85751 14.75 9.46418 15.2858 10 15.7858C10.5358 15.2858 11.1425 14.75 11.7858 14.2142C14.2858 12.0717 17.1425 9.6425 17.1425 6.78583C17.1425 5.03583 16.0358 3.92833 14.2858 3.92833C12.6075 3.92833 11.6433 4.8925 10.6075 6.46417C10.5424 6.56539 10.4522 6.64815 10.3458 6.70449C10.2395 6.76082 10.1204 6.78884 10 6.78583C9.87966 6.78884 9.76056 6.76082 9.65417 6.70449C9.54778 6.64815 9.45767 6.56539 9.39251 6.46417C8.35751 4.8925 7.39251 3.92833 5.71418 3.92833Z" fill="#163300"/>
</svg>
