<svg width="20" height="20" viewBox="0 0 20 20" fill="none" xmlns="http://www.w3.org/2000/svg">
<g clip-path="url(#clip0_660_231)">
<path fill-rule="evenodd" clip-rule="evenodd" d="M12.9843 1.00012H18.4532C18.598 1.00063 18.7368 1.0584 18.8393 1.16084C18.9417 1.26328 18.9995 1.40207 19 1.54694V7.01644H17.9064V2.85881L11.8907 8.87512L11.125 8.10944L17.1407 2.09313H12.9843V1.00012Z" fill="black"/>
<path fill-rule="evenodd" clip-rule="evenodd" d="M7.01568 1H1.54682C1.40195 1.0005 1.26316 1.05828 1.16072 1.16072C1.05828 1.26316 1.00051 1.40195 1 1.54682V7.01632H2.09364V2.85868L8.10932 8.875L8.875 8.10932L2.85932 2.09301H7.01568V1Z" fill="black"/>
<path fill-rule="evenodd" clip-rule="evenodd" d="M12.9843 19H18.4532C18.598 18.9995 18.7368 18.9417 18.8393 18.8393C18.9417 18.7368 18.9995 18.598 19 18.4532V12.9837H17.9064V17.1413L11.8907 11.125L11.125 11.8907L17.1407 17.907H12.9843V19Z" fill="black"/>
<path fill-rule="evenodd" clip-rule="evenodd" d="M7.01568 19H1.54682C1.40195 18.9995 1.26316 18.9417 1.16072 18.8393C1.05828 18.7368 1.00051 18.598 1 18.4532V12.9837H2.09364V17.1413L8.10932 11.125L8.875 11.8907L2.85932 17.907H7.01568V19Z" fill="black"/>
</g>
<defs>
<clipPath id="clip0_660_231">
<rect width="18" height="18" fill="white" transform="translate(1 1)"/>
</clipPath>
</defs>
</svg>
